<mxfile host="app.diagrams.net" modified="2021-07-27T11:11:22.666Z" agent="5.0 (Macintosh; Intel Mac OS X 10_15_5) AppleWebKit/537.36 (KHTML, like Gecko) Chrome/92.0.4515.107 Safari/537.36" etag="iD-zKnrJWFcAiGYZ-9Cp" version="14.9.2" type="github">
  <diagram id="RvW2-8bk5v1OftCQCt1w" name="Page-1">
    <mxGraphModel dx="1298" dy="777" grid="1" gridSize="10" guides="1" tooltips="1" connect="1" arrows="1" fold="1" page="1" pageScale="1" pageWidth="827" pageHeight="1169" math="0" shadow="0">
      <root>
        <mxCell id="0" />
        <mxCell id="1" parent="0" />
        <mxCell id="1YPdk_fBgYxeocNgGQ4Q-6" style="edgeStyle=orthogonalEdgeStyle;rounded=0;orthogonalLoop=1;jettySize=auto;html=1;exitX=1;exitY=0.5;exitDx=0;exitDy=0;exitPerimeter=0;" edge="1" parent="1" source="1YPdk_fBgYxeocNgGQ4Q-1" target="1YPdk_fBgYxeocNgGQ4Q-5">
          <mxGeometry relative="1" as="geometry" />
        </mxCell>
        <mxCell id="1YPdk_fBgYxeocNgGQ4Q-8" value="&lt;font style=&quot;font-size: 18px&quot;&gt;提供&lt;/font&gt;" style="edgeLabel;html=1;align=center;verticalAlign=middle;resizable=0;points=[];" vertex="1" connectable="0" parent="1YPdk_fBgYxeocNgGQ4Q-6">
          <mxGeometry x="-0.16" relative="1" as="geometry">
            <mxPoint as="offset" />
          </mxGeometry>
        </mxCell>
        <mxCell id="1YPdk_fBgYxeocNgGQ4Q-1" value="&lt;font style=&quot;font-size: 18px&quot;&gt;实时绑码数据(DE)&lt;/font&gt;" style="shape=cylinder3;whiteSpace=wrap;html=1;boundedLbl=1;backgroundOutline=1;size=15;fillColor=#e1d5e7;strokeColor=#9673a6;" vertex="1" parent="1">
          <mxGeometry x="120" y="400" width="90" height="80" as="geometry" />
        </mxCell>
        <mxCell id="1YPdk_fBgYxeocNgGQ4Q-3" style="edgeStyle=orthogonalEdgeStyle;rounded=0;orthogonalLoop=1;jettySize=auto;html=1;exitX=0.5;exitY=1;exitDx=0;exitDy=0;exitPerimeter=0;" edge="1" parent="1" source="1YPdk_fBgYxeocNgGQ4Q-2" target="1YPdk_fBgYxeocNgGQ4Q-1">
          <mxGeometry relative="1" as="geometry" />
        </mxCell>
        <mxCell id="1YPdk_fBgYxeocNgGQ4Q-7" value="&lt;font style=&quot;font-size: 18px&quot;&gt;依赖&lt;/font&gt;" style="edgeLabel;html=1;align=center;verticalAlign=middle;resizable=0;points=[];" vertex="1" connectable="0" parent="1YPdk_fBgYxeocNgGQ4Q-3">
          <mxGeometry x="-0.1143" y="-2" relative="1" as="geometry">
            <mxPoint as="offset" />
          </mxGeometry>
        </mxCell>
        <mxCell id="1YPdk_fBgYxeocNgGQ4Q-2" value="&lt;font style=&quot;font-size: 18px&quot;&gt;风控数据&lt;/font&gt;" style="shape=cylinder3;whiteSpace=wrap;html=1;boundedLbl=1;backgroundOutline=1;size=15;fillColor=#dae8fc;strokeColor=#6c8ebf;" vertex="1" parent="1">
          <mxGeometry x="120" y="250" width="90" height="80" as="geometry" />
        </mxCell>
        <mxCell id="1YPdk_fBgYxeocNgGQ4Q-4" value="" style="endArrow=classic;html=1;entryX=0;entryY=0.5;entryDx=0;entryDy=0;entryPerimeter=0;" edge="1" parent="1" target="1YPdk_fBgYxeocNgGQ4Q-1">
          <mxGeometry width="50" height="50" relative="1" as="geometry">
            <mxPoint x="40" y="440" as="sourcePoint" />
            <mxPoint x="80" y="430" as="targetPoint" />
          </mxGeometry>
        </mxCell>
        <mxCell id="1YPdk_fBgYxeocNgGQ4Q-10" style="edgeStyle=orthogonalEdgeStyle;rounded=0;orthogonalLoop=1;jettySize=auto;html=1;exitX=1;exitY=0.5;exitDx=0;exitDy=0;" edge="1" parent="1" source="1YPdk_fBgYxeocNgGQ4Q-5" target="1YPdk_fBgYxeocNgGQ4Q-9">
          <mxGeometry relative="1" as="geometry" />
        </mxCell>
        <mxCell id="1YPdk_fBgYxeocNgGQ4Q-12" value="产出黑名单数据" style="edgeLabel;html=1;align=center;verticalAlign=middle;resizable=0;points=[];fontSize=18;" vertex="1" connectable="0" parent="1YPdk_fBgYxeocNgGQ4Q-10">
          <mxGeometry y="-2" relative="1" as="geometry">
            <mxPoint as="offset" />
          </mxGeometry>
        </mxCell>
        <mxCell id="1YPdk_fBgYxeocNgGQ4Q-5" value="&lt;font style=&quot;font-size: 18px&quot;&gt;地推系统&lt;/font&gt;" style="rounded=1;whiteSpace=wrap;html=1;fillColor=#f8cecc;strokeColor=#b85450;" vertex="1" parent="1">
          <mxGeometry x="310" y="410" width="120" height="60" as="geometry" />
        </mxCell>
        <mxCell id="1YPdk_fBgYxeocNgGQ4Q-9" value="&lt;font style=&quot;font-size: 18px&quot;&gt;地推数据库&lt;/font&gt;" style="shape=cylinder3;whiteSpace=wrap;html=1;boundedLbl=1;backgroundOutline=1;size=15;fillColor=#f8cecc;strokeColor=#b85450;" vertex="1" parent="1">
          <mxGeometry x="630" y="400" width="110" height="80" as="geometry" />
        </mxCell>
      </root>
    </mxGraphModel>
  </diagram>
</mxfile>
